<?xml version="1.0" encoding="utf-8"?>
<!-- Generator: Adobe Illustrator 14.0.0, SVG Export Plug-In  -->
<!DOCTYPE svg PUBLIC "-//W3C//DTD SVG 1.1//EN" "http://www.w3.org/Graphics/SVG/1.1/DTD/svg11.dtd" [
	<!ENTITY ns_flows "http://ns.adobe.com/Flows/1.0/">
]>
<svg version="1.1"
	 xmlns="http://www.w3.org/2000/svg" xmlns:xlink="http://www.w3.org/1999/xlink" xmlns:a="http://ns.adobe.com/AdobeSVGViewerExtensions/3.0/"
	 x="0px" y="0px" width="500px" height="500px" viewBox="0 0 500 500" enable-background="new 0 0 500 500" xml:space="preserve">
<defs>
</defs>
<rect fill="#CD1141" width="500" height="500"/>
<path fill="#FFFFFF" d="M412.241,174.857c-4.234,0-7.65,3.403-7.65,7.611c0,4.248,3.416,7.65,7.65,7.65
	c4.191,0,7.62-3.403,7.62-7.65C419.861,178.26,416.432,174.857,412.241,174.857z M412.241,189.199c-3.704,0-6.728-2.987-6.728-6.73
	c0-3.719,3.023-6.678,6.728-6.678c3.685,0,6.694,2.959,6.694,6.678C418.935,186.212,415.925,189.199,412.241,189.199z"/>
<path fill="#FFFFFF" d="M416.157,180.467c0-0.737-0.329-1.476-0.939-1.832c-0.668-0.389-1.39-0.43-2.11-0.43h-3.712v8.543h1.07
	v-3.946h1.879l2.44,3.946h1.248l-2.57-3.946C414.961,182.749,416.157,182.139,416.157,180.467z M412.02,181.991h-1.555v-3.02h2.427
	c1.033,0,2.215,0.148,2.215,1.484C415.107,182.192,413.244,181.991,412.02,181.991z"/>
<path fill="#FFFFFF" d="M254.688,209.828c0.497-0.886,0.949-1.819,1.369-2.725c0.933,0.953,1.835,1.872,2.859,2.725
	c4.412,3.745,9.798,6.556,15.838,8.523c9.388,3.329,16.575,5.591,19.092,6.665c4.828,2.02,7.812,3.335,7.812,7.744
	c0,4.852-5.704,6.886-11.338,7.094c-7.738-0.094-15.565-3.912-15.422-11.912l-31.135-0.034
	c1.621,20.629,22.005,36.542,46.007,37.004c14.596-0.168,28.038-4.402,36.771-14.872c8.53,8.886,18.774,14.609,33.021,14.872
	c22.689-0.263,46.084-11.207,46.46-35.3c-0.054-7.618-2.164-14.409-6.828-19.784c-4.188-4.853-10.358-8.557-18.885-10.744
	c-8.563-2.833-20.491-5.813-25.29-7.37c-3.225-1.093-4.65-3.093-4.65-5.703c0-3.504,4.285-5.685,9.426-5.947
	c8.619,0.262,11.021,4.946,11.491,8.523h29.542c0.241-20.228-16.693-33.897-41.033-33.897c-17.956,0-30.243,6.832-36.186,16.745
	c-6.682-10.281-19.854-16.745-36.3-16.745c-17.305,0-29.267,6.671-35.461,15.979c-7.05-9.146-18.794-14.979-32.924-14.979h-47.863
	v15.469c-6.701-10.208-19.703-16.469-36.078-16.469c-25.172,0.014-38.917,13.872-40.189,29.898c0,9.999,4.628,18.77,12.164,25.239
	c4.295,3.705,9.539,6.598,15.448,8.523c9.355,3.329,16.576,5.591,19.076,6.665c4.832,2.02,7.855,3.335,7.855,7.744
	c0,4.852-5.745,6.886-11.339,7.094c-7.758-0.094-15.593-3.912-15.462-11.912l-31.115-0.034
	c1.627,20.629,21.961,36.542,46.007,37.004c13.002-0.168,25.371-3.853,33.612-11.449l0.02,9.744h30.656v-28.689l0.014-5.147
	l18.033,0.033C235.592,229.143,248.299,221.183,254.688,209.828z M287.344,180.065c8.569,0.262,10.981,4.946,11.441,8.523h20.864
	c1.07,8.334,5.477,15.663,12.046,21.24c4.343,3.705,9.634,6.598,15.51,8.523c9.396,3.329,16.616,5.591,19.1,6.665
	c4.852,2.02,7.867,3.335,7.867,7.744c0,4.852-5.744,6.886-11.354,7.094c-7.744-0.094-15.612-3.912-15.481-11.912l-13.869-0.034
	c-0.354-6.913-2.466-13.1-6.787-18.08c-4.138-4.853-10.315-8.569-18.814-10.744c-8.62-2.833-20.502-5.813-25.311-7.37
	c-3.218-1.093-4.674-3.093-4.674-5.703C277.881,182.507,282.196,180.327,287.344,180.065z M171.063,195.917l-0.02,10.69
	c-3.903-3.248-9.05-5.838-15.54-7.522c-8.573-2.833-20.498-5.813-25.313-7.37c-3.204-1.093-4.646-3.093-4.646-5.703
	c0-3.504,4.308-5.685,9.442-5.947c8.597,0.262,10.982,4.946,11.483,8.523h24.595V195.917z M218.11,204.03h-16.392v-22.972h16.392
	c6.205,0,11.208,5.168,11.208,11.53C229.317,198.923,224.314,204.03,218.11,204.03z"/>
<path fill="#FFFFFF" d="M24.747,309.197l-12.788,39.044h6.708l3.148-10.255h12.623l3.162,10.255h7.1L32.24,309.197H24.747z
	 M23.395,332.578c0.899-2.591,4.906-16.905,4.906-16.905h0.056c0.279,1.524,4.225,16.06,4.617,16.905H23.395z"/>
<path fill="#FFFFFF" d="M70.314,327.055c0,3.558,0.393,9.134,0.563,11.101l-0.171,0.174c-0.503-1.805-2.201-6.429-4-10.025
	l-9.462-19.053H49.92v38.99h6.362l-0.222-18.878c-0.06-3.436-0.114-7.549-0.396-10.812l0.171-0.174
	c0.728,2.315,2.872,7.214,4.953,11.55l8.734,18.313h6.818v-38.99h-6.137L70.314,327.055z"/>
<rect x="101.104" y="309.258" fill="#FFFFFF" width="6.647" height="38.99"/>
<path fill="#FFFFFF" d="M139.019,327.337c4.338-1.234,6.707-4.335,6.707-8.51c0-3.261-1.47-5.805-4.396-7.657
	c-2.426-1.523-4.456-1.919-10.254-1.919h-10.314v38.99h11.324c9.862,0,15.214-3.321,15.214-11.046
	C147.3,333.316,145.501,328.921,139.019,327.337z M127.076,314.546h5.01c1.862,0,2.873,0.167,3.664,0.456
	c1.862,0.671,3.154,2.591,3.154,4.846c0,1.013-0.339,2.644-1.52,3.879c-1.245,1.302-2.426,1.477-4.788,1.477h-5.52V314.546z
	 M133.042,342.893h-5.855v-12.342h5.691c1.862,0,2.644,0.054,3.607,0.337c2.138,0.623,3.662,2.932,3.662,5.69
	C140.146,340.074,138.001,342.893,133.042,342.893z"/>
<path fill="#FFFFFF" d="M182.542,309.251l-6.137,22.2c-0.735,2.704-1.235,5.354-1.406,6.543c-0.222-1.188-0.564-3.383-1.467-6.657
	l-5.969-22.086h-8.62l-3.55,38.99h6.362l1.691-23.549c0.171-2.422,0.399-6.141,0.399-7.436c0.225,1.295,0.953,4.785,1.688,7.376
	l6.483,23.608h5.523l7.093-24.676c0.734-2.483,1.245-4.96,1.517-6.261c0,1.188,0.125,4.288,0.289,6.771l1.801,24.166h6.373
	l-3.436-38.99H182.542z"/>
<path fill="#FFFFFF" d="M207.349,316.854c1.009-0.014,1.849-1.033,1.849-2.282c0-1.449-0.976-2.422-2.446-2.422h-3.077v8.288h1.622
	v-3.463c0.104,0,0.177,0.026,0.261,0.061c0.295,0.12,0.557,0.543,1.373,2.033c0.318,0.59,0.456,0.813,0.778,1.369h1.973
	c0,0-1.521-2.631-1.994-3.222C207.583,317.075,207.507,317.002,207.349,316.854z M205.852,315.721h-0.556v-2.242h0.597
	c0.399,0,0.755,0.061,0.943,0.121c0.399,0.154,0.591,0.49,0.591,1.014c0,0.335-0.117,0.631-0.316,0.832
	C206.889,315.646,206.573,315.721,205.852,315.721z"/>
<path fill="#FFFFFF" d="M206.251,308.941c-4.027,0-7.348,3.282-7.348,7.396c0,4.141,3.321,7.395,7.348,7.395
	c4.04,0,7.358-3.254,7.358-7.395C213.61,312.224,210.292,308.941,206.251,308.941z M206.251,322.304
	c-3.141,0-5.664-2.657-5.664-5.966c0-3.295,2.523-5.92,5.664-5.92s5.688,2.625,5.688,5.92
	C211.939,319.646,209.392,322.304,206.251,322.304z"/>
<path fill="#FFFFFF" d="M255.702,343.792c-3.778,0-6.997-1.798-8.677-5.522c-1.018-2.195-1.527-4.906-1.527-9.69
	c0-4.617,0.682-7.893,2.027-10.255c1.691-2.986,4.453-4.671,7.788-4.671c2.416,0,4.554,0.672,6.638,2.188l2.995-4.281
	c-2.314-1.913-5.925-3.04-9.696-3.04c-6.087,0-11.443,3.382-14.361,8.959c-1.762,3.262-2.604,7.154-2.604,11.831
	c0,5.638,1.523,10.376,4.453,13.919c3.043,3.664,7.154,5.637,12.342,5.637c4.171,0,7.606-1.127,10.657-3.436l-3.051-4.12
	C260.487,343.054,258.459,343.792,255.702,343.792z"/>
<path fill="#FFFFFF" d="M287.518,308.688c-9.751,0-16.284,7.214-16.284,20.059c0,11.549,5.469,20.112,16.566,20.112
	c10.144,0,15.999-7.885,15.999-20.052C303.799,317.418,298.5,308.688,287.518,308.688z M287.628,343.96
	c-6.65,0-9.187-5.57-9.187-15.61c0-9.348,2.473-14.649,9.022-14.649c6.982,0,8.952,5.973,8.952,15.496
	C296.417,339.678,293.43,343.96,287.628,343.96z"/>
<path fill="#FFFFFF" d="M337.759,309.251l-6.15,22.2c-0.729,2.704-1.238,5.354-1.402,6.543c-0.229-1.188-0.57-3.383-1.47-6.657
	l-5.973-22.086h-8.61l-3.554,38.99h6.366l1.688-23.549c0.167-2.422,0.393-6.141,0.393-7.436c0.229,1.295,0.955,4.785,1.691,7.376
	l6.479,23.608h5.521l7.103-24.676c0.738-2.483,1.238-4.96,1.527-6.261c0,1.188,0.11,4.288,0.274,6.771l1.809,24.166h6.369
	l-3.443-38.99H337.759z"/>
<path fill="#FFFFFF" d="M379.7,311.109c-2.138-1.294-4.218-1.858-9.916-1.858h-10.354v38.997h6.416v-14.879h6.59
	c7.047,0,12.626-4.79,12.626-12.455C385.061,316.634,383.142,313.144,379.7,311.109z M370.911,328.183h-5.065v-13.69h5.065
	c2.544,0,4.232,0.678,5.417,1.912c1.063,1.128,1.58,2.765,1.58,4.9C377.908,325.934,375.7,328.183,370.911,328.183z"/>
<path fill="#FFFFFF" d="M399.01,309.197l-12.791,39.044h6.707l3.154-10.255h12.617l3.161,10.255h7.1l-12.452-39.044H399.01z
	 M397.661,332.578c0.899-2.591,4.899-16.905,4.899-16.905h0.058c0.289,1.524,4.231,16.06,4.624,16.905H397.661z"/>
<path fill="#FFFFFF" d="M446.272,327.055c0,3.558,0.394,9.134,0.557,11.101l-0.163,0.174c-0.508-1.805-2.205-6.429-4-10.025
	l-9.47-19.053h-7.324v38.99h6.368l-0.225-18.878c-0.058-3.436-0.111-7.549-0.399-10.812l0.178-0.174
	c0.728,2.315,2.873,7.214,4.956,11.55l8.734,18.313h6.815v-38.99h-6.142L446.272,327.055z"/>
<path fill="#FFFFFF" d="M482.36,309.258l-5.963,12.335c-1.016,2.14-2.144,4.905-2.144,4.905s-0.899-2.536-2.084-5.021l-5.869-12.22
	h-7.817l12.271,23.214v15.776h6.707v-15.723l12.452-23.268H482.36z"/>
</svg>
