<svg id="Groupe_1298" data-name="Groupe 1298" xmlns="http://www.w3.org/2000/svg" xmlns:xlink="http://www.w3.org/1999/xlink" width="316.359" height="79.536" viewBox="0 0 316.359 79.536">
  <defs>
    <clipPath id="clip-path">
      <rect id="Rectangle_311" data-name="Rectangle 311" width="316.359" height="79.536" fill="none"/>
    </clipPath>
  </defs>
  <g id="Groupe_1298-2" data-name="Groupe 1298" clip-path="url(#clip-path)">
    <path id="Tracé_177" data-name="Tracé 177" d="M31.288,67.579A12.909,12.909,0,0,1,18.4,54.68V11.724H4.626v42.69A26.955,26.955,0,0,0,31.553,81.338H49.726A26.956,26.956,0,0,0,76.653,54.414V11.724H62.615V54.68a12.908,12.908,0,0,1-12.89,12.9" transform="translate(-1.819 -4.61)" fill="#fff"/>
    <path id="Tracé_226" data-name="Tracé 226" d="M0,0H220.9V3.305H0Z" transform="translate(95.456 59.593)" fill="#d9000d"/>
    <path id="Tracé_178" data-name="Tracé 178" d="M270.557,118.723v-.2h2.618v.2H272.9a.753.753,0,0,0-.671.365,1.685,1.685,0,0,0-.114.786v3a5.325,5.325,0,0,1-.221,1.728,2.167,2.167,0,0,1-.867,1.052,3.086,3.086,0,0,1-1.759.439,3.307,3.307,0,0,1-1.837-.42,2.275,2.275,0,0,1-.89-1.127,6.285,6.285,0,0,1-.174-1.823V119.83a1.454,1.454,0,0,0-.187-.9.78.78,0,0,0-.609-.212h-.279v-.2h3.2v.2H268.2a.735.735,0,0,0-.655.289,1.616,1.616,0,0,0-.136.818v3.223a7.084,7.084,0,0,0,.079.987,2.075,2.075,0,0,0,.286.867,1.56,1.56,0,0,0,.6.513,2.051,2.051,0,0,0,.957.2,2.654,2.654,0,0,0,1.3-.316,1.7,1.7,0,0,0,.782-.811,4.691,4.691,0,0,0,.211-1.671V119.83a1.513,1.513,0,0,0-.155-.868.8.8,0,0,0-.632-.239Z" transform="translate(-104.308 -46.601)" fill="#161615"/>
    <path id="Tracé_179" data-name="Tracé 179" d="M281.467,118.52h2.007l4.52,5.547V119.8a1.477,1.477,0,0,0-.151-.85.812.812,0,0,0-.638-.228h-.257v-.2h2.575v.2h-.262a.749.749,0,0,0-.665.284,1.629,1.629,0,0,0-.12.794v6.235h-.2l-4.875-5.955v4.555a1.5,1.5,0,0,0,.147.849.812.812,0,0,0,.637.229h.262v.2h-2.574v-.2h.256a.753.753,0,0,0,.671-.283,1.639,1.639,0,0,0,.121-.795v-5.145a3.414,3.414,0,0,0-.488-.5,1.8,1.8,0,0,0-.488-.223,1.685,1.685,0,0,0-.48-.05Z" transform="translate(-110.669 -46.601)" fill="#161615"/>
    <path id="Tracé_180" data-name="Tracé 180" d="M301.855,125.714v.2h-3.169v-.2h.262a.792.792,0,0,0,.665-.266,1.658,1.658,0,0,0,.132-.84v-4.778a2.412,2.412,0,0,0-.071-.742.493.493,0,0,0-.224-.234,1.031,1.031,0,0,0-.5-.131h-.262v-.2h3.169v.2h-.266a.788.788,0,0,0-.661.266,1.605,1.605,0,0,0-.137.84v4.778a2.459,2.459,0,0,0,.072.742.492.492,0,0,0,.229.234,1,1,0,0,0,.5.13Z" transform="translate(-117.44 -46.601)" fill="#161615"/>
    <path id="Tracé_181" data-name="Tracé 181" d="M314.265,118.52l.082,1.735h-.207a2.084,2.084,0,0,0-.164-.655,1.088,1.088,0,0,0-.45-.466,1.566,1.566,0,0,0-.739-.15h-1.041v5.651a1.5,1.5,0,0,0,.146.849.817.817,0,0,0,.638.229h.257v.2H309.65v-.2h.263a.748.748,0,0,0,.664-.283,1.646,1.646,0,0,0,.121-.795v-5.651h-.89a2.505,2.505,0,0,0-.734.076,1,1,0,0,0-.486.4,1.614,1.614,0,0,0-.241.8h-.208l.088-1.735Z" transform="translate(-121.157 -46.601)" fill="#161615"/>
    <path id="Tracé_182" data-name="Tracé 182" d="M324.537,118.924v2.924h1.625a1.338,1.338,0,0,0,.846-.191,1.233,1.233,0,0,0,.316-.884h.2v2.573h-.2a2.814,2.814,0,0,0-.152-.691.688.688,0,0,0-.322-.3,1.632,1.632,0,0,0-.687-.11h-1.625v2.439a2.264,2.264,0,0,0,.044.6.339.339,0,0,0,.154.169.934.934,0,0,0,.413.063H326.4a3.393,3.393,0,0,0,.911-.087,1.346,1.346,0,0,0,.546-.345,4.172,4.172,0,0,0,.693-1.019h.218l-.639,1.855h-5.7v-.2h.263a1.039,1.039,0,0,0,.495-.123.46.46,0,0,0,.238-.262,2.541,2.541,0,0,0,.063-.714v-4.807a1.578,1.578,0,0,0-.143-.868.841.841,0,0,0-.653-.217h-.263v-.2h5.7l.083,1.62H328a2.629,2.629,0,0,0-.254-.8.872.872,0,0,0-.413-.331,2.422,2.422,0,0,0-.769-.083Z" transform="translate(-126.776 -46.601)" fill="#161615"/>
    <path id="Tracé_183" data-name="Tracé 183" d="M336.837,125.916v-.2h.278a.728.728,0,0,0,.665-.3,1.7,1.7,0,0,0,.121-.806V119.83a1.544,1.544,0,0,0-.151-.868.813.813,0,0,0-.635-.239h-.278v-.2h3.012a6.579,6.579,0,0,1,2.523.377,3,3,0,0,1,1.39,1.254,3.875,3.875,0,0,1,.525,2.03,3.69,3.69,0,0,1-.938,2.578,4.119,4.119,0,0,1-3.207,1.158Zm2.112-.533a5.618,5.618,0,0,0,1.161.152,2.758,2.758,0,0,0,2.1-.89,3.905,3.905,0,0,0,0-4.827,2.817,2.817,0,0,0-2.143-.884,4.62,4.62,0,0,0-1.118.159Z" transform="translate(-132.44 -46.601)" fill="#161615"/>
    <path id="Tracé_184" data-name="Tracé 184" d="M367.654,118.723v-.2h2.619v.2H370a.752.752,0,0,0-.671.365,1.658,1.658,0,0,0-.115.786v3a5.308,5.308,0,0,1-.221,1.728,2.18,2.18,0,0,1-.866,1.052,3.1,3.1,0,0,1-1.761.439,3.309,3.309,0,0,1-1.836-.42,2.278,2.278,0,0,1-.89-1.127,6.318,6.318,0,0,1-.173-1.823V119.83a1.439,1.439,0,0,0-.189-.9.777.777,0,0,0-.609-.212h-.277v-.2h3.2v.2H365.3a.731.731,0,0,0-.654.289,1.612,1.612,0,0,0-.138.818v3.223a7.272,7.272,0,0,0,.079.987,2.091,2.091,0,0,0,.287.867,1.545,1.545,0,0,0,.6.513,2.048,2.048,0,0,0,.957.2,2.657,2.657,0,0,0,1.3-.316,1.694,1.694,0,0,0,.782-.811,4.681,4.681,0,0,0,.211-1.671V119.83a1.516,1.516,0,0,0-.154-.868.8.8,0,0,0-.631-.239Z" transform="translate(-142.486 -46.601)" fill="#161615"/>
    <path id="Tracé_185" data-name="Tracé 185" d="M378.562,118.52h2.007l4.522,5.547V119.8a1.461,1.461,0,0,0-.154-.85.81.81,0,0,0-.638-.228h-.257v-.2h2.575v.2h-.262a.746.746,0,0,0-.664.284,1.641,1.641,0,0,0-.121.794v6.235h-.2l-4.876-5.955v4.555a1.51,1.51,0,0,0,.148.849.817.817,0,0,0,.638.229h.262v.2h-2.574v-.2h.256a.751.751,0,0,0,.669-.283,1.642,1.642,0,0,0,.122-.795v-5.145a3.4,3.4,0,0,0-.49-.5,1.763,1.763,0,0,0-.487-.223,1.692,1.692,0,0,0-.481-.05Z" transform="translate(-148.846 -46.601)" fill="#161615"/>
    <path id="Tracé_186" data-name="Tracé 186" d="M398.952,125.714v.2h-3.169v-.2h.263a.79.79,0,0,0,.663-.266,1.644,1.644,0,0,0,.132-.84v-4.778a2.479,2.479,0,0,0-.07-.742.494.494,0,0,0-.223-.234,1.036,1.036,0,0,0-.5-.131h-.263v-.2h3.169v.2h-.268a.786.786,0,0,0-.658.266,1.614,1.614,0,0,0-.138.84v4.778a2.386,2.386,0,0,0,.073.742.486.486,0,0,0,.228.234,1,1,0,0,0,.5.13Z" transform="translate(-155.617 -46.601)" fill="#161615"/>
    <path id="Tracé_187" data-name="Tracé 187" d="M412.676,118.52v.2a1.2,1.2,0,0,0-.6.251,2.259,2.259,0,0,0-.511.817l-2.58,6.3h-.2l-2.771-6.377a3.692,3.692,0,0,0-.3-.6.956.956,0,0,0-.336-.264,1.556,1.556,0,0,0-.537-.123v-.2h3.021v.2a1.347,1.347,0,0,0-.665.175.4.4,0,0,0-.152.322,2.469,2.469,0,0,0,.25.85l1.882,4.338,1.745-4.283a2.889,2.889,0,0,0,.257-.879.412.412,0,0,0-.158-.3,1.044,1.044,0,0,0-.533-.205l-.094-.016v-.2Z" transform="translate(-159.18 -46.601)" fill="#161615"/>
    <path id="Tracé_188" data-name="Tracé 188" d="M423.683,118.924v2.924h1.626a1.328,1.328,0,0,0,.844-.191,1.228,1.228,0,0,0,.318-.884h.2v2.573h-.2a2.8,2.8,0,0,0-.153-.691.688.688,0,0,0-.322-.3,1.638,1.638,0,0,0-.687-.11h-1.626v2.439a2.346,2.346,0,0,0,.042.6.347.347,0,0,0,.155.169.942.942,0,0,0,.414.063h1.254a3.382,3.382,0,0,0,.91-.087,1.353,1.353,0,0,0,.547-.345,4.187,4.187,0,0,0,.691-1.019h.219l-.638,1.855h-5.7v-.2h.262a1.052,1.052,0,0,0,.5-.123.471.471,0,0,0,.237-.262,2.637,2.637,0,0,0,.061-.714v-4.807a1.577,1.577,0,0,0-.143-.868.838.838,0,0,0-.653-.217h-.262v-.2h5.7l.083,1.62h-.214a2.569,2.569,0,0,0-.252-.8.869.869,0,0,0-.413-.331,2.419,2.419,0,0,0-.769-.083Z" transform="translate(-165.76 -46.601)" fill="#161615"/>
    <path id="Tracé_189" data-name="Tracé 189" d="M443.341,125.917h-1.974l-2.5-3.458c-.185.007-.337.011-.452.011l-.153,0-.167-.008v2.149a1.5,1.5,0,0,0,.152.867.772.772,0,0,0,.621.24h.288v.2h-3.166v-.2h.278a.746.746,0,0,0,.671-.305,1.733,1.733,0,0,0,.113-.8V119.83a1.506,1.506,0,0,0-.154-.868.8.8,0,0,0-.63-.239h-.278v-.2h2.693a6.448,6.448,0,0,1,1.737.172,1.989,1.989,0,0,1,.948.634,1.639,1.639,0,0,1,.389,1.1,1.722,1.722,0,0,1-.444,1.183,2.5,2.5,0,0,1-1.377.709l1.527,2.121a3.78,3.78,0,0,0,.9.971,2.257,2.257,0,0,0,.981.305Zm-5.25-3.8c.068,0,.128,0,.178,0s.093,0,.126,0a2.407,2.407,0,0,0,1.6-.458,1.469,1.469,0,0,0,.536-1.167,1.524,1.524,0,0,0-.431-1.127,1.548,1.548,0,0,0-1.149-.434,4.723,4.723,0,0,0-.855.1Z" transform="translate(-171.424 -46.601)" fill="#161615"/>
    <path id="Tracé_190" data-name="Tracé 190" d="M456.391,118.242V120.8h-.2a3.258,3.258,0,0,0-.351-1.172,1.837,1.837,0,0,0-.725-.694,1.989,1.989,0,0,0-.969-.255,1.322,1.322,0,0,0-.939.346,1.054,1.054,0,0,0-.37.788.923.923,0,0,0,.235.616,6.03,6.03,0,0,0,1.609,1.091,11.354,11.354,0,0,1,1.415.853,2.069,2.069,0,0,1,.582.7,1.835,1.835,0,0,1,.207.845,1.925,1.925,0,0,1-.652,1.449,2.358,2.358,0,0,1-1.678.609,3.476,3.476,0,0,1-.6-.05,5.87,5.87,0,0,1-.7-.2,3.1,3.1,0,0,0-.674-.172.286.286,0,0,0-.215.082.679.679,0,0,0-.117.339h-.2v-2.536h.2a3.6,3.6,0,0,0,.383,1.192,1.846,1.846,0,0,0,.734.656,2.26,2.26,0,0,0,1.083.263,1.532,1.532,0,0,0,1.076-.36,1.111,1.111,0,0,0,.4-.851,1.156,1.156,0,0,0-.15-.55,1.643,1.643,0,0,0-.465-.518,13.4,13.4,0,0,0-1.161-.7,11.029,11.029,0,0,1-1.35-.848,2.28,2.28,0,0,1-.61-.7,1.759,1.759,0,0,1-.207-.842,1.823,1.823,0,0,1,.612-1.371,2.184,2.184,0,0,1,1.556-.575,3.109,3.109,0,0,1,1.248.289,1.313,1.313,0,0,0,.43.136.325.325,0,0,0,.233-.084.671.671,0,0,0,.145-.341Z" transform="translate(-177.708 -46.491)" fill="#161615"/>
    <path id="Tracé_191" data-name="Tracé 191" d="M467.91,125.714v.2h-3.168v-.2H465a.8.8,0,0,0,.666-.266,1.69,1.69,0,0,0,.13-.84v-4.778a2.439,2.439,0,0,0-.072-.742.482.482,0,0,0-.224-.234,1.028,1.028,0,0,0-.5-.131h-.262v-.2h3.168v.2h-.267a.785.785,0,0,0-.66.266,1.61,1.61,0,0,0-.135.84v4.778a2.412,2.412,0,0,0,.07.742.494.494,0,0,0,.228.234,1,1,0,0,0,.5.13Z" transform="translate(-182.731 -46.601)" fill="#161615"/>
    <path id="Tracé_192" data-name="Tracé 192" d="M480.319,118.52l.082,1.735h-.207a2.071,2.071,0,0,0-.163-.655,1.116,1.116,0,0,0-.449-.466,1.578,1.578,0,0,0-.74-.15H477.8v5.651a1.51,1.51,0,0,0,.147.849.819.819,0,0,0,.639.229h.255v.2h-3.135v-.2h.261a.746.746,0,0,0,.664-.283,1.636,1.636,0,0,0,.121-.795v-5.651h-.889a2.517,2.517,0,0,0-.736.076,1.011,1.011,0,0,0-.487.4,1.615,1.615,0,0,0-.238.8H474.2l.086-1.735Z" transform="translate(-186.448 -46.601)" fill="#161615"/>
    <path id="Tracé_193" data-name="Tracé 193" d="M491.736,125.714v.2h-3.168v-.2h.262a.793.793,0,0,0,.665-.266,1.684,1.684,0,0,0,.13-.84v-4.778a2.5,2.5,0,0,0-.071-.742.5.5,0,0,0-.223-.234,1.036,1.036,0,0,0-.5-.131h-.262v-.2h3.168v.2h-.267a.787.787,0,0,0-.66.266,1.613,1.613,0,0,0-.136.84v4.778a2.42,2.42,0,0,0,.072.742.482.482,0,0,0,.228.234.994.994,0,0,0,.5.13Z" transform="translate(-192.099 -46.601)" fill="#161615"/>
    <path id="Tracé_194" data-name="Tracé 194" d="M499.947,118.924v2.924h1.626a1.332,1.332,0,0,0,.844-.191,1.233,1.233,0,0,0,.317-.884h.2v2.573h-.2a2.8,2.8,0,0,0-.154-.691.679.679,0,0,0-.322-.3,1.623,1.623,0,0,0-.686-.11h-1.626v2.439a2.254,2.254,0,0,0,.042.6.341.341,0,0,0,.152.169.953.953,0,0,0,.416.063h1.254a3.416,3.416,0,0,0,.912-.087,1.342,1.342,0,0,0,.543-.345,4.121,4.121,0,0,0,.693-1.019h.219l-.639,1.855h-5.7v-.2h.26a1.037,1.037,0,0,0,.5-.123.459.459,0,0,0,.238-.262,2.593,2.593,0,0,0,.063-.714v-4.807a1.6,1.6,0,0,0-.141-.868.846.846,0,0,0-.657-.217h-.26v-.2h5.7l.083,1.62h-.214a2.614,2.614,0,0,0-.253-.8.866.866,0,0,0-.414-.331,2.406,2.406,0,0,0-.768-.083Z" transform="translate(-195.745 -46.601)" fill="#161615"/>
    <path id="Tracé_195" data-name="Tracé 195" d="M517.506,118.242V120.8h-.2a3.2,3.2,0,0,0-.35-1.172,1.839,1.839,0,0,0-.724-.694,1.99,1.99,0,0,0-.97-.255,1.323,1.323,0,0,0-.937.346,1.06,1.06,0,0,0-.372.788.93.93,0,0,0,.235.616,6,6,0,0,0,1.61,1.091,11.4,11.4,0,0,1,1.414.853,2.081,2.081,0,0,1,.584.7,1.847,1.847,0,0,1,.2.845,1.917,1.917,0,0,1-.652,1.449,2.353,2.353,0,0,1-1.676.609,3.474,3.474,0,0,1-.606-.05,5.784,5.784,0,0,1-.7-.2,3.178,3.178,0,0,0-.676-.172.285.285,0,0,0-.216.082.67.67,0,0,0-.116.339h-.2v-2.536h.2a3.649,3.649,0,0,0,.38,1.192,1.834,1.834,0,0,0,.735.656,2.26,2.26,0,0,0,1.083.263,1.537,1.537,0,0,0,1.077-.36,1.114,1.114,0,0,0,.4-.851,1.162,1.162,0,0,0-.149-.55,1.653,1.653,0,0,0-.468-.518,12.984,12.984,0,0,0-1.161-.7,11.051,11.051,0,0,1-1.349-.848,2.248,2.248,0,0,1-.608-.7,1.739,1.739,0,0,1-.209-.842,1.831,1.831,0,0,1,.611-1.371,2.188,2.188,0,0,1,1.555-.575,3.1,3.1,0,0,1,1.248.289,1.315,1.315,0,0,0,.431.136.326.326,0,0,0,.232-.084.657.657,0,0,0,.144-.341Z" transform="translate(-201.737 -46.491)" fill="#161615"/>
    <path id="Tracé_196" data-name="Tracé 196" d="M157.039,118.559a.213.213,0,0,1,.205-.207h1a.205.205,0,0,1,.2.207v2.879h3.075v-2.879a.205.205,0,0,1,.2-.207h.99a.212.212,0,0,1,.2.207v7.194a.212.212,0,0,1-.2.206h-.99a.205.205,0,0,1-.2-.206v-3h-3.075v3a.2.2,0,0,1-.2.206h-1a.212.212,0,0,1-.205-.206Z" transform="translate(-61.746 -46.535)" fill="#161615"/>
    <path id="Tracé_197" data-name="Tracé 197" d="M174.153,118.228a3.87,3.87,0,1,1-3.867,3.882,3.867,3.867,0,0,1,3.867-3.882m0,6.344a2.473,2.473,0,1,0-2.467-2.461,2.479,2.479,0,0,0,2.467,2.461" transform="translate(-66.954 -46.486)" fill="#161615"/>
    <path id="Tracé_198" data-name="Tracé 198" d="M186.6,118.538a.2.2,0,0,1,.205-.192h.268l4.26,4.648h.011v-4.44a.2.2,0,0,1,.2-.2h.988a.212.212,0,0,1,.205.2v7.2a.2.2,0,0,1-.205.194h-.258L188,121.263h-.01v4.484a.2.2,0,0,1-.2.2h-.978a.212.212,0,0,1-.205-.2Z" transform="translate(-73.37 -46.532)" fill="#161615"/>
    <path id="Tracé_199" data-name="Tracé 199" d="M216.613,118.559a.2.2,0,0,1,.2-.207H220.4a2.331,2.331,0,0,1,2.324,2.336,2.428,2.428,0,0,1-1.578,2.218l1.563,2.734a.206.206,0,0,1-.181.316h-1.118a.186.186,0,0,1-.172-.1L219.722,123H218v2.746a.211.211,0,0,1-.2.207h-.981a.2.2,0,0,1-.2-.207Zm3.674,3.239a1.071,1.071,0,0,0,0-2.143h-2.277V121.8Z" transform="translate(-85.17 -46.535)" fill="#161615"/>
    <path id="Tracé_200" data-name="Tracé 200" d="M234.183,118.909a.217.217,0,0,1,.211-.206h1.036a.217.217,0,0,1,.212.206v6.759a.217.217,0,0,1-.212.206h-1.036a.216.216,0,0,1-.211-.206Z" transform="translate(-92.078 -46.673)" fill="#161615"/>
    <path id="Tracé_201" data-name="Tracé 201" d="M236.248,128.936a.167.167,0,0,1,.155.166v.848a.168.168,0,0,1-.155.167h-5.476a.168.168,0,0,1-.157-.167V129.1a.167.167,0,0,1,.157-.166Z" transform="translate(-90.675 -50.696)" fill="#161615"/>
    <path id="Tracé_202" data-name="Tracé 202" d="M236.094,118.354a.168.168,0,0,1,.158.165v.844a.168.168,0,0,1-.158.166h-4.617a.167.167,0,0,1-.158-.166v-.844a.167.167,0,0,1,.158-.165Z" transform="translate(-90.952 -46.535)" fill="#161615"/>
    <path id="Tracé_203" data-name="Tracé 203" d="M244.1,124.687l.4-.666a.267.267,0,0,1,.381-.075,4.314,4.314,0,0,0,1.955.767.934.934,0,0,0,1.02-.828c.016-.622-.521-.9-1.465-1.269-1.052-.41-2.073-1.055-2.073-2.324,0-.957.706-2.063,2.488-2.063a4.062,4.062,0,0,1,2.242.72.261.261,0,0,1,.068.355l-.367.536a.31.31,0,0,1-.392.129,4.064,4.064,0,0,0-1.662-.517c-.64,0-.986.34-.988.752,0,.506.461.853,1.368,1.208,1.088.419,2.344,1.043,2.344,2.43a2.333,2.333,0,0,1-2.578,2.127,4.373,4.373,0,0,1-2.689-.959c-.1-.1-.156-.15-.055-.323" transform="translate(-95.956 -46.486)" fill="#161615"/>
    <path id="Tracé_204" data-name="Tracé 204" d="M204.154,118.228a3.87,3.87,0,1,1-3.867,3.882,3.866,3.866,0,0,1,3.867-3.882m0,6.344a2.473,2.473,0,1,0-2.465-2.461,2.48,2.48,0,0,0,2.465,2.461" transform="translate(-78.75 -46.486)" fill="#161615"/>
    <path id="Tracé_205" data-name="Tracé 205" d="M157.744,7.245a.356.356,0,0,1,.344-.343h1.718a.343.343,0,0,1,.343.343v7.4a2.633,2.633,0,1,0,5.262.017V7.245a.343.343,0,0,1,.343-.343h1.717a.354.354,0,0,1,.343.343v7.523a5.036,5.036,0,0,1-10.071,0Z" transform="translate(-62.023 -2.714)" fill="#161615"/>
    <path id="Tracé_206" data-name="Tracé 206" d="M201.456,6.929A.341.341,0,0,1,201.8,6.6h.452l7.521,7.992h.019V7.127a.343.343,0,0,1,.343-.343H211.8a.356.356,0,0,1,.343.343V19.3a.339.339,0,0,1-.343.326h-.434l-7.557-8.3h-.019V19.1a.343.343,0,0,1-.343.344H201.8a.356.356,0,0,1-.344-.344Z" transform="translate(-79.21 -2.596)" fill="#161615"/>
    <path id="Rectangle_309" data-name="Rectangle 309" d="M.566,0H1.8a.567.567,0,0,1,.567.567V12.092a.566.566,0,0,1-.566.566H.566A.566.566,0,0,1,0,12.092V.566A.566.566,0,0,1,.566,0Z" transform="translate(149.565 4.188)" fill="#161615"/>
    <path id="Tracé_207" data-name="Tracé 207" d="M275.059,7.371a.318.318,0,0,1,.306-.469h1.845a.336.336,0,0,1,.309.2l3.471,7.776h.126L284.588,7.1a.332.332,0,0,1,.307-.2h1.844a.318.318,0,0,1,.306.469l-5.6,12.17a.323.323,0,0,1-.306.2h-.183a.321.321,0,0,1-.306-.2Z" transform="translate(-108.135 -2.714)" fill="#161615"/>
    <path id="Tracé_208" data-name="Tracé 208" d="M319.537,7.245a.343.343,0,0,1,.343-.343h7.361a.343.343,0,0,1,.342.343V8.729a.343.343,0,0,1-.342.343h-5.353v2.965h4.466a.355.355,0,0,1,.343.343v1.5a.344.344,0,0,1-.343.344h-4.466V17.39h5.353a.342.342,0,0,1,.342.343v1.483a.343.343,0,0,1-.342.343H319.88a.343.343,0,0,1-.343-.343Z" transform="translate(-125.638 -2.714)" fill="#161615"/>
    <path id="Tracé_209" data-name="Tracé 209" d="M359.043,7.244a.344.344,0,0,1,.345-.343h5.172a3.918,3.918,0,0,1,3.942,3.887,3.992,3.992,0,0,1-2.677,3.655l2.476,4.592a.341.341,0,0,1-.307.524h-1.9a.313.313,0,0,1-.289-.163L363.4,14.6h-2.009v4.611a.355.355,0,0,1-.342.344h-1.664a.343.343,0,0,1-.345-.344Zm5.317,5.426a1.841,1.841,0,0,0,1.789-1.845,1.8,1.8,0,0,0-1.789-1.754h-2.948v3.6Z" transform="translate(-141.171 -2.713)" fill="#161615"/>
    <path id="Tracé_210" data-name="Tracé 210" d="M399.6,17.67l.651-1.12a.418.418,0,0,1,.615-.127,6,6,0,0,0,2.731,1.12,1.508,1.508,0,0,0,1.644-1.391c0-.922-.776-1.555-2.3-2.169-1.7-.688-3.4-1.772-3.4-3.906,0-1.609,1.192-3.471,4.066-3.471a6.366,6.366,0,0,1,3.618,1.211.447.447,0,0,1,.107.6l-.686,1.032a.477.477,0,0,1-.633.217,5.953,5.953,0,0,0-2.512-.993,1.44,1.44,0,0,0-1.592,1.265c0,.85.669,1.428,2.133,2.025,1.755.705,3.779,1.754,3.779,4.085,0,1.863-1.609,3.581-4.159,3.581a5.814,5.814,0,0,1-3.978-1.411c-.163-.162-.253-.253-.09-.542" transform="translate(-157.085 -2.597)" fill="#161615"/>
    <rect id="Rectangle_310" data-name="Rectangle 310" width="2.368" height="12.657" rx="0.566" transform="translate(266.401 4.188)" fill="#161615"/>
    <path id="Tracé_211" data-name="Tracé 211" d="M471.118,9.073H468.35a.344.344,0,0,1-.343-.343V7.245a.344.344,0,0,1,.343-.343h7.9a.342.342,0,0,1,.342.343V8.729a.342.342,0,0,1-.342.343h-2.766V19.216a.356.356,0,0,1-.344.343h-1.682a.356.356,0,0,1-.343-.343Z" transform="translate(-184.014 -2.714)" fill="#161615"/>
    <path id="Tracé_212" data-name="Tracé 212" d="M507.251,4.531a.343.343,0,0,1,.343-.343h7.361a.343.343,0,0,1,.342.343V6.015a.343.343,0,0,1-.342.343H509.6V9.323h4.466a.355.355,0,0,1,.343.343v1.5a.344.344,0,0,1-.343.344H509.6v3.165h5.353a.342.342,0,0,1,.342.343V16.5a.343.343,0,0,1-.342.343h-7.361a.343.343,0,0,1-.343-.343Zm2.423-1.7-.325-.632a.27.27,0,0,1,.108-.344L512.423.083c.2-.127.379-.109.469.053l.507.941a.323.323,0,0,1-.107.488l-3.166,1.393c-.252.108-.379.036-.452-.127" transform="translate(-199.445 0)" fill="#161615"/>
    <path id="Tracé_213" data-name="Tracé 213" d="M172.52,34.837a14.033,14.033,0,0,1,10.037,3.858.77.77,0,0,1,.042,1.161l-2.53,2.612a.663.663,0,0,1-1.037,0,9.806,9.806,0,0,0-6.386-2.446,9.628,9.628,0,0,0,.042,19.243,9.942,9.942,0,0,0,6.344-2.364.764.764,0,0,1,1.037,0l2.572,2.655a.789.789,0,0,1-.042,1.118A14.232,14.232,0,0,1,172.52,64.7a14.93,14.93,0,1,1,0-29.859" transform="translate(-61.946 -13.697)" fill="#161615"/>
    <path id="Tracé_214" data-name="Tracé 214" d="M212.02,36.308a.788.788,0,0,1,.789-.788h16.879a.787.787,0,0,1,.787.788v3.4a.788.788,0,0,1-.787.789H217.412v6.8h10.244a.814.814,0,0,1,.787.788v3.441a.786.786,0,0,1-.787.788H217.412v7.259h12.276a.786.786,0,0,1,.787.786v3.4a.787.787,0,0,1-.787.788H212.809a.788.788,0,0,1-.789-.788Z" transform="translate(-83.364 -13.966)" fill="#161615"/>
    <path id="Tracé_215" data-name="Tracé 215" d="M256.447,35.584a.78.78,0,0,1,.789-.747h1.036l17.252,18.331h.042V36.04a.788.788,0,0,1,.787-.789h3.817a.815.815,0,0,1,.787.789V63.95a.779.779,0,0,1-.787.748h-1L261.84,45.661H261.8V63.494a.787.787,0,0,1-.789.788h-3.773a.816.816,0,0,1-.789-.788Z" transform="translate(-100.832 -13.697)" fill="#161615"/>
    <path id="Tracé_216" data-name="Tracé 216" d="M315.32,40.5h-6.346a.787.787,0,0,1-.787-.789v-3.4a.787.787,0,0,1,.787-.789H327.1a.788.788,0,0,1,.789.789v3.4a.788.788,0,0,1-.789.789h-6.345V63.762a.815.815,0,0,1-.789.788h-3.854a.815.815,0,0,1-.789-.788Z" transform="translate(-121.175 -13.966)" fill="#161615"/>
    <path id="Tracé_217" data-name="Tracé 217" d="M352,36.309a.788.788,0,0,1,.788-.789h11.863a8.983,8.983,0,0,1,9.04,8.916c0,3.817-2.53,6.927-6.137,8.379l5.681,10.534a.785.785,0,0,1-.7,1.2h-4.356a.716.716,0,0,1-.664-.373l-5.515-10.991h-4.6V63.763a.818.818,0,0,1-.789.788h-3.816a.787.787,0,0,1-.788-.788ZM364.192,48.75a4.222,4.222,0,0,0,4.1-4.229,4.124,4.124,0,0,0-4.1-4.023h-6.76V48.75Z" transform="translate(-138.401 -13.966)" fill="#161615"/>
    <path id="Tracé_218" data-name="Tracé 218" d="M395.48,63.2l12.9-27.91a.746.746,0,0,1,.705-.457h.416a.707.707,0,0,1,.706.457L422.978,63.2a.733.733,0,0,1-.707,1.079h-3.607a1.19,1.19,0,0,1-1.2-.829l-2.033-4.48h-12.4L401,63.453a1.25,1.25,0,0,1-1.2.829h-3.609a.733.733,0,0,1-.7-1.079M413.4,54.37l-4.148-9.123h-.127l-4.063,9.123Z" transform="translate(-155.465 -13.697)" fill="#161615"/>
    <path id="Tracé_219" data-name="Tracé 219" d="M451.3,36.308a.788.788,0,0,1,.79-.788h3.815a.814.814,0,0,1,.788.788V59.575H467.27a.788.788,0,0,1,.79.786v3.4a.789.789,0,0,1-.79.788H452.092a.789.789,0,0,1-.79-.788Z" transform="translate(-177.446 -13.966)" fill="#161615"/>
    <path id="Tracé_220" data-name="Tracé 220" d="M490.057,36.308a.786.786,0,0,1,.788-.788h16.88a.784.784,0,0,1,.787.788v3.4a.786.786,0,0,1-.787.789H495.448v6.8h10.244a.814.814,0,0,1,.788.788v3.441a.786.786,0,0,1-.788.788H495.448v7.259h12.276a.784.784,0,0,1,.787.786v3.4a.785.785,0,0,1-.787.788h-16.88a.786.786,0,0,1-.788-.788Z" transform="translate(-192.684 -13.966)" fill="#161615"/>
    <path id="Tracé_221" data-name="Tracé 221" d="M47.907,82.326H29.734A29.766,29.766,0,0,1,0,52.595V8.5A1.4,1.4,0,0,1,1.4,7.1H17.981a1.4,1.4,0,0,1,1.4,1.4v44.36A10.1,10.1,0,0,0,29.469,62.952H47.907A10.1,10.1,0,0,0,57.99,52.861V8.5a1.4,1.4,0,0,1,1.4-1.4H76.238a1.4,1.4,0,0,1,1.4,1.4V52.595A29.767,29.767,0,0,1,47.907,82.326M29.469,65.759a12.909,12.909,0,0,1-12.892-12.9V9.9H2.807v42.69A26.955,26.955,0,0,0,29.734,79.519H47.907A26.956,26.956,0,0,0,74.835,52.595V9.9H60.8V52.861a12.908,12.908,0,0,1-12.89,12.9" transform="translate(0 -2.791)" fill="#161615"/>
    <path id="Tracé_222" data-name="Tracé 222" d="M65.253,50.674v12.17H59.795a26.877,26.877,0,1,1,0-53.754l5.446-.008-.008,12.1H59.758a14.789,14.789,0,1,0,0,29.578h5.474Z" transform="translate(-12.943 -3.571)" fill="#161615"/>
    <path id="Tracé_223" data-name="Tracé 223" d="M69.087,34.977a11.167,11.167,0,1,1-11.162,11.17,11.173,11.173,0,0,1,11.162-11.17" transform="translate(-22.775 -13.753)" fill="#d9000d"/>
    <path id="Tracé_224" data-name="Tracé 224" d="M75.118,24.912a.734.734,0,1,1,1.468,0V58.887a.734.734,0,1,1-1.468,0Z" transform="translate(-29.535 -9.504)" fill="#161615"/>
    <path id="Tracé_225" data-name="Tracé 225" d="M47.847,53.642a.736.736,0,0,1,0-1.472H81.83a.736.736,0,1,1,0,1.472Z" transform="translate(-18.525 -20.513)" fill="#161615"/>
  </g>
</svg>
